<?xml version="1.0" encoding="UTF-8" standalone="no"?>
<!-- Created with Inkscape (http://www.inkscape.org/) -->

<svg
   xmlns:dc="http://purl.org/dc/elements/1.1/"
   xmlns:cc="http://creativecommons.org/ns#"
   xmlns:rdf="http://www.w3.org/1999/02/22-rdf-syntax-ns#"
   xmlns:svg="http://www.w3.org/2000/svg"
   xmlns="http://www.w3.org/2000/svg"
   xmlns:xlink="http://www.w3.org/1999/xlink"
   xmlns:sodipodi="http://sodipodi.sourceforge.net/DTD/sodipodi-0.dtd"
   xmlns:inkscape="http://www.inkscape.org/namespaces/inkscape"
   id="svg7384"
   height="64"
   width="64"
   version="1.1"
   inkscape:version="0.48.4 r9939"
   sodipodi:docname="desima-gui.svg">
  <title
     id="title5490">Desima graphical user interface icon</title>
  <defs
     id="defs3271">
    <filter
       inkscape:collect="always"
       id="filter4352"
       color-interpolation-filters="sRGB">
      <feGaussianBlur
         inkscape:collect="always"
         stdDeviation="0.3115768"
         id="feGaussianBlur4354" />
    </filter>
    <linearGradient
       y2="25.428572"
       y1="21.857143"
       xlink:href="#linearGradient4206"
       x2="25.207588"
       x1="25.064732"
       inkscape:collect="always"
       id="linearGradient33204"
       gradientUnits="userSpaceOnUse"
       gradientTransform="matrix(21.14292,0,0,21.14292,-149.9615,-46.50619)" />
    <linearGradient
       y2="26.71875"
       y1="26.71875"
       xlink:href="#linearGradient9910"
       x2="38.826412"
       x1="9.3030529"
       inkscape:collect="always"
       id="linearGradient33202"
       gradientUnits="userSpaceOnUse"
       gradientTransform="matrix(21.14292,0,0,21.14292,-149.9615,-46.50619)" />
    <linearGradient
       y2="56.575912"
       y1="14.004482"
       xlink:href="#linearGradient2682"
       x2="37.969398"
       x1="17.160095"
       inkscape:collect="always"
       id="linearGradient33199"
       gradientUnits="userSpaceOnUse"
       gradientTransform="matrix(21.14292,0,0,21.14292,-149.9615,-46.50619)" />
    <linearGradient
       y2="30.000000"
       y1="19.500000"
       xlink:href="#linearGradient6924"
       x2="15.785715"
       x1="16.071430"
       inkscape:collect="always"
       id="linearGradient33195"
       gradientUnits="userSpaceOnUse"
       gradientTransform="matrix(21.14292,0,0,21.14292,-152.982,9.37161)" />
    <linearGradient
       y2="13.284962"
       y1="16.525082"
       xlink:href="#linearGradient6932"
       x2="24"
       x1="24"
       inkscape:collect="always"
       id="linearGradient33190"
       gradientUnits="userSpaceOnUse" />
    <radialGradient
       xlink:href="#linearGradient2265"
       r="17.142857"
       inkscape:collect="always"
       id="radialGradient33182"
       gradientUnits="userSpaceOnUse"
       gradientTransform="matrix(1,0,0,0.5,0,20)"
       fy="40"
       fx="23.857143"
       cy="40"
       cx="23.857143" />
    <linearGradient
       id="linearGradient9910">
      <stop
         style="stop-color:#729fcf;stop-opacity:1;"
         offset="0"
         id="stop9912" />
      <stop
         style="stop-color:#a5bfda;stop-opacity:1;"
         offset="0.31578946"
         id="stop9918" />
      <stop
         style="stop-color:#376ca4;stop-opacity:1;"
         offset="1"
         id="stop9914" />
    </linearGradient>
    <linearGradient
       id="linearGradient2682">
      <stop
         style="stop-color:#3465a4;stop-opacity:1;"
         offset="0"
         id="stop2684" />
      <stop
         style="stop-color:#729fcf;stop-opacity:0;"
         offset="1"
         id="stop2686" />
    </linearGradient>
    <linearGradient
       inkscape:collect="always"
       id="linearGradient2265">
      <stop
         style="stop-color:#000000;stop-opacity:1;"
         offset="0"
         id="stop2267" />
      <stop
         style="stop-color:#000000;stop-opacity:0;"
         offset="1"
         id="stop2269" />
    </linearGradient>
    <linearGradient
       id="linearGradient4206">
      <stop
         style="stop-color:#204a87;stop-opacity:1;"
         offset="0"
         id="stop4208" />
      <stop
         style="stop-color:#3465a4;stop-opacity:1;"
         offset="1"
         id="stop4210" />
    </linearGradient>
    <linearGradient
       id="linearGradient6932">
      <stop
         style="stop-color:#ffffff;stop-opacity:1.0000000;"
         offset="0.0000000"
         id="stop6934" />
      <stop
         style="stop-color:#729fcf;stop-opacity:1;"
         offset="1"
         id="stop6936" />
    </linearGradient>
    <linearGradient
       id="linearGradient6924">
      <stop
         style="stop-color:#ffffff;stop-opacity:1;"
         offset="0"
         id="stop6926" />
      <stop
         style="stop-color:#ffffff;stop-opacity:0;"
         offset="1"
         id="stop6928" />
    </linearGradient>
    <linearGradient
       x1="-21.659"
       y1="15.649"
       x2="-21.962"
       gradientUnits="userSpaceOnUse"
       xlink:href="#linearGradient6001"
       y2="21.336"
       id="linearGradient6019" />
    <linearGradient
       x1="-22.823"
       y1="28.338"
       x2="-22.114"
       gradientUnits="userSpaceOnUse"
       xlink:href="#linearGradient6001"
       y2="22.662"
       id="linearGradient6015" />
    <linearGradient
       x1="-25.176"
       y1="30.057"
       x2="-22.114"
       gradientUnits="userSpaceOnUse"
       xlink:href="#linearGradient6001"
       y2="22.662"
       id="linearGradient6011" />
    <linearGradient
       x1="-25.176"
       y1="30.057"
       x2="-22.252"
       gradientUnits="userSpaceOnUse"
       xlink:href="#linearGradient6001"
       y2="21.042"
       id="linearGradient6007" />
    <radialGradient
       r="6.7175"
       cx="12.071"
       cy="12.493"
       gradientUnits="userSpaceOnUse"
       xlink:href="#linearGradient6001"
       id="radialGradient5983" />
    <radialGradient
       r="43.527"
       gradientTransform="scale(0.99999,1)"
       cx="15.601"
       cy="12.142"
       gradientUnits="userSpaceOnUse"
       id="radialGradient4132-8">
      <stop
         offset="0"
         stop-color="#fff"
         id="stop4128-5" />
      <stop
         offset="1"
         stop-opacity=".16495"
         stop-color="#fff"
         id="stop4130-7" />
    </radialGradient>
    <radialGradient
       r="12.289"
       gradientTransform="scale(1.644,0.60828)"
       cx="15.116"
       cy="63.965"
       gradientUnits="userSpaceOnUse"
       id="radialGradient4120">
      <stop
         offset="0"
         id="stop4116" />
      <stop
         offset="1"
         stop-opacity="0"
         id="stop4118" />
    </radialGradient>
    <radialGradient
       r="29.993"
       gradientTransform="scale(0.99999,1)"
       cx="18.248"
       cy="15.716"
       gradientUnits="userSpaceOnUse"
       id="radialGradient3968">
      <stop
         offset="0"
         stop-color="#d3e9ff"
         id="stop3964-1" />
      <stop
         offset=".15517"
         stop-color="#d3e9ff"
         id="stop4134-8" />
      <stop
         offset=".75"
         stop-color="#4074ae"
         id="stop4346-4" />
      <stop
         offset="1"
         stop-color="#36486c"
         id="stop3966-7" />
    </radialGradient>
    <linearGradient
       id="linearGradient6001">
      <stop
         offset="0"
         stop-color="#fff"
         id="stop6003" />
      <stop
         offset="1"
         stop-opacity="0"
         stop-color="#fff"
         id="stop6005" />
    </linearGradient>
    <radialGradient
       inkscape:collect="always"
       xlink:href="#linearGradient6001"
       id="radialGradient5312"
       gradientUnits="userSpaceOnUse"
       cx="12.071"
       cy="12.493"
       r="6.7175" />
    <radialGradient
       inkscape:collect="always"
       xlink:href="#linearGradient6001"
       id="radialGradient5314"
       gradientUnits="userSpaceOnUse"
       cx="12.071"
       cy="12.493"
       r="6.7175" />
    <radialGradient
       inkscape:collect="always"
       xlink:href="#linearGradient6001"
       id="radialGradient5316"
       gradientUnits="userSpaceOnUse"
       cx="12.071"
       cy="12.493"
       r="6.7175" />
  </defs>
  <sodipodi:namedview
     pagecolor="#ffffff"
     bordercolor="#666666"
     borderopacity="1"
     objecttolerance="10"
     gridtolerance="10"
     guidetolerance="10"
     inkscape:pageopacity="0"
     inkscape:pageshadow="2"
     inkscape:window-width="1615"
     inkscape:window-height="1026"
     id="namedview3269"
     showgrid="false"
     inkscape:zoom="7.375"
     inkscape:cx="23.435591"
     inkscape:cy="21.611688"
     inkscape:window-x="1345"
     inkscape:window-y="24"
     inkscape:window-maximized="1"
     inkscape:current-layer="layer11" />
  <metadata
     id="metadata90">
    <rdf:RDF>
      <cc:Work
         rdf:about="">
        <dc:format>image/svg+xml</dc:format>
        <dc:type
           rdf:resource="http://purl.org/dc/dcmitype/StillImage" />
        <dc:title>Desima graphical user interface icon</dc:title>
        <dc:creator>
          <cc:Agent>
            <dc:title>Frédéric Bisson - Jakub Steiner (Internet icon) - Beate Kaspar (database icon)</dc:title>
          </cc:Agent>
        </dc:creator>
      </cc:Work>
    </rdf:RDF>
  </metadata>
  <g
     id="layer11"
     transform="translate(-202,-442)">
    <g
       id="g4322"
       transform="matrix(3.886957,0,0,3.886957,-582.09597,-1460.3243)"
       style="fill:#aaaaaa;fill-opacity:1;stroke:none;filter:url(#filter4352)">
      <path
         inkscape:connector-curvature="0"
         id="path4324"
         style="font-size:6.70988035px;font-style:normal;font-variant:normal;font-weight:normal;font-stretch:normal;line-height:125%;letter-spacing:0px;word-spacing:0px;fill:#aaaaaa;fill-opacity:1;stroke:none;font-family:Monospace;-inkscape-font-specification:Monospace"
         d="m 203.25133,494.58589 c 0.55697,0 0.94576,-0.13651 1.16637,-0.40954 0.2206,-0.2752 0.3309,-0.77102 0.3309,-1.48744 0,-0.72297 -0.1103,-1.22097 -0.3309,-1.494 -0.21843,-0.2752 -0.60721,-0.41281 -1.16637,-0.41281 l -0.31452,0 0,3.80379 0.31452,0 m 0.0131,-4.34766 c 0.74699,1e-5 1.29741,0.19877 1.65126,0.59629 0.35383,0.39753 0.53075,1.01566 0.53076,1.85439 -1e-5,0.83437 -0.17693,1.45031 -0.53076,1.84784 -0.35385,0.39534 -0.90427,0.59301 -1.65126,0.59301 l -0.99272,0 0,-4.89153 0.99272,0" />
      <path
         inkscape:connector-curvature="0"
         id="path4326"
         style="font-size:6.70988035px;font-style:normal;font-variant:normal;font-weight:normal;font-stretch:normal;line-height:125%;letter-spacing:0px;word-spacing:0px;fill:#aaaaaa;fill-opacity:1;stroke:none;font-family:Monospace;-inkscape-font-specification:Monospace"
         d="m 206.50471,490.23823 2.90281,0 0,0.55697 -2.241,0 0,1.44813 2.14271,0 0,0.55698 -2.14271,0 0,1.77248 2.30325,0 0,0.55697 -2.96506,0 0,-4.89153" />
      <path
         inkscape:connector-curvature="0"
         id="path4328"
         style="font-size:6.84861803px;font-style:normal;font-variant:normal;font-weight:normal;font-stretch:normal;line-height:125%;letter-spacing:0px;word-spacing:0px;fill:#aaaaaa;fill-opacity:1;stroke:none;font-family:Monospace;-inkscape-font-specification:Monospace"
         d="m 209.41966,495.77123 0,0.68553 c -0.20511,-0.13153 -0.41132,-0.23073 -0.61865,-0.29762 -0.20511,-0.0669 -0.41244,-0.10032 -0.622,-0.10032 -0.3188,0 -0.57072,0.0747 -0.75575,0.22405 -0.18504,0.14714 -0.27756,0.34667 -0.27756,0.59859 0,0.22071 0.0602,0.38902 0.18058,0.50495 0.12261,0.11593 0.35001,0.21291 0.68219,0.29093 l 0.35447,0.0803 c 0.46816,0.10924 0.80925,0.2809 1.02328,0.51498 0.21401,0.23409 0.32102,0.55289 0.32103,0.9564 -10e-6,0.47486 -0.14715,0.83713 -0.44142,1.08682 -0.29428,0.24969 -0.72232,0.37453 -1.28412,0.37453 -0.23408,0 -0.46928,-0.0256 -0.70559,-0.0769 -0.23631,-0.0491 -0.47374,-0.12373 -0.71228,-0.22405 l 0,-0.71898 c 0.25637,0.16275 0.49826,0.28202 0.72566,0.35782 0.22962,0.0758 0.46036,0.1137 0.69221,0.1137 0.3411,0 0.60639,-0.0758 0.79589,-0.2274 0.18949,-0.15382 0.28424,-0.36784 0.28424,-0.64206 0,-0.24968 -0.0658,-0.4403 -0.1973,-0.57183 -0.1293,-0.13153 -0.35558,-0.23297 -0.67884,-0.30431 l -0.36116,-0.0836 c -0.46371,-0.10478 -0.80034,-0.26306 -1.0099,-0.47486 -0.20956,-0.21178 -0.31434,-0.49603 -0.31434,-0.85273 0,-0.44587 0.14937,-0.80257 0.4481,-1.0701 0.30097,-0.26974 0.70002,-0.40462 1.19717,-0.40463 0.19173,10e-6 0.39348,0.0223 0.60528,0.0669 0.21178,0.0424 0.43472,0.10701 0.66881,0.19395" />
      <path
         inkscape:connector-curvature="0"
         id="path4330"
         style="font-size:6.84861803px;font-style:normal;font-variant:normal;font-weight:normal;font-stretch:normal;line-height:125%;letter-spacing:0px;word-spacing:0px;fill:#aaaaaa;fill-opacity:1;stroke:none;font-family:Monospace;-inkscape-font-specification:Monospace"
         d="m 210.8275,495.60068 2.77222,0 0,0.56849 -1.04669,0 0,3.85569 1.04669,0 0,0.56849 -2.77222,0 0,-0.56849 1.04669,0 0,-3.85569 -1.04669,0 0,-0.56849" />
      <path
         inkscape:connector-curvature="0"
         id="path4332"
         style="font-size:6.70988035px;font-style:normal;font-variant:normal;font-weight:normal;font-stretch:normal;line-height:125%;letter-spacing:0px;word-spacing:0px;fill:#aaaaaa;fill-opacity:1;stroke:none;font-family:Monospace;-inkscape-font-specification:Monospace"
         d="m 210.15566,500.94731 0.88461,0 0.84528,2.48999 0.85185,-2.48999 0.88787,0 0,4.89153 -0.61266,0 0,-4.32145 -0.8715,2.57845 -0.50128,0 -0.87477,-2.57845 0,4.32145 -0.6094,0 0,-4.89153" />
      <path
         inkscape:connector-curvature="0"
         id="path4334"
         style="font-size:6.70988035px;font-style:normal;font-variant:normal;font-weight:normal;font-stretch:normal;line-height:125%;letter-spacing:0px;word-spacing:0px;fill:#aaaaaa;fill-opacity:1;stroke:none;font-family:Monospace;-inkscape-font-specification:Monospace"
         d="m 215.92852,501.53049 -0.69785,2.5031 1.3957,0 -0.69785,-2.5031 m -0.39971,-0.58318 0.8027,0 1.49727,4.89153 -0.68475,0 -0.36039,-1.27449 -1.71351,0 -0.35384,1.27449 -0.68475,0 1.49727,-4.89153" />
    </g>
    <g
       inkscape:label="Ebene 1"
       id="layer1"
       transform="matrix(0.02819542,0,0,0.02819542,243.69739,441.71076)">
      <g
         id="g33717">
        <rect
           y="115.85568"
           x="-64.879845"
           width="850"
           style="fill:none;stroke:none"
           id="rect2300"
           height="850" />
        <path
           transform="matrix(22.38511,0,0,24.34097,-173.556,-227.5451)"
           style="fill:url(#radialGradient33182);fill-opacity:1;fill-rule:nonzero;stroke:none;stroke-width:1;marker:none;visibility:visible;display:block;overflow:visible"
           sodipodi:type="arc"
           sodipodi:ry="8.5714283"
           sodipodi:rx="17.142857"
           sodipodi:cy="40"
           sodipodi:cx="23.857143"
           id="path3366"
           d="m 41,40 c 0,4.733869 -7.675118,8.571428 -17.142857,8.571428 -9.467738,0 -17.1428562,-3.837559 -17.1428562,-8.571428 0,-4.733869 7.6751182,-8.571428 17.1428562,-8.571428 C 33.324882,31.428572 41,35.266131 41,40 z" />
        <path
           style="fill:url(#linearGradient33202);fill-opacity:1;fill-rule:nonzero;stroke:url(#linearGradient33204);stroke-width:21.14291763;stroke-linecap:butt;stroke-linejoin:miter;stroke-miterlimit:10;stroke-opacity:1;stroke-dasharray:none;stroke-dashoffset:0;marker:none;visibility:visible;display:block;overflow:visible"
           sodipodi:nodetypes="csszssz"
           id="path3068"
           d="m 356.14658,141.79793 c -166.17064,0 -301.286141,59.25303 -301.286141,132.14323 0,5.23055 0,483.48267 0,488.92993 0,72.89021 135.115501,132.14324 301.286141,132.14324 166.17062,0 306.66742,-59.25303 306.66742,-132.14324 0,-4.31441 0,-484.61551 0,-488.92993 0,-72.8902 -140.4968,-132.14323 -306.66742,-132.14323 z"
           inkscape:connector-curvature="0" />
        <path
           style="opacity:0.5443038;fill:none;stroke:url(#linearGradient33199);stroke-width:21.14291763;stroke-linecap:butt;stroke-linejoin:miter;stroke-miterlimit:10;stroke-opacity:1;stroke-dasharray:none;stroke-dashoffset:0;marker:none;visibility:visible;display:block;overflow:visible"
           sodipodi:nodetypes="csszssz"
           id="path4174"
           d="m 356.32841,158.27504 c -154.92895,0 -280.90458,55.24474 -280.90458,123.20421 0,4.87661 0,462.73513 0,467.81387 0,67.95926 125.97563,123.20399 280.90458,123.20399 154.93104,0 285.92199,-55.24473 285.92199,-123.20399 0,-4.02266 0,-463.79144 0,-467.81387 0,-67.95947 -130.99095,-123.20421 -285.92199,-123.20421 z"
           inkscape:connector-curvature="0" />
        <path
           transform="matrix(21.93136,0,0,20.18343,-168.884,-11.86222)"
           style="fill:#3465a4;fill-opacity:1;fill-rule:nonzero;stroke:url(#linearGradient33190);stroke-width:1.00492704;stroke-linecap:butt;stroke-linejoin:miter;stroke-miterlimit:10;stroke-opacity:1;stroke-dasharray:none;stroke-dashoffset:0;marker:none;visibility:visible;display:block;overflow:visible"
           sodipodi:type="arc"
           sodipodi:ry="5.5"
           sodipodi:rx="12.857142"
           sodipodi:cy="14.071428"
           sodipodi:cx="24"
           id="path3364"
           d="m 36.857142,14.071428 c 0,3.037566 -5.756338,5.5 -12.857142,5.5 -7.100804,0 -12.857142,-2.462434 -12.857142,-5.5 0,-3.037566 5.756338,-5.4999997 12.857142,-5.4999997 7.100804,0 12.857142,2.4624337 12.857142,5.4999997 z" />
        <path
           style="opacity:0.49367083;fill:url(#linearGradient33195);fill-opacity:1;fill-rule:nonzero;stroke:none;stroke-width:1;marker:none;visibility:visible;display:block;overflow:visible"
           sodipodi:nodetypes="ccccccc"
           id="path6922"
           d="m 138.48871,370.3112 7.55013,354.89907 96.65274,27.18366 -3.01921,-353.38862 c 0,0 43.79544,0 114.77644,-4.53071 -110.27723,-4.92778 -236.4497,-52.32195 -279.389474,-83.06143 29.958034,44.23478 63.429374,58.89803 63.429374,58.89803 z"
           inkscape:connector-curvature="0" />
      </g>
    </g>
    <g
       id="layer1-0"
       transform="matrix(0.59443349,0,0,0.59443349,201.30287,476.26946)">
      <path
         sodipodi:cx="24.849752"
         sodipodi:cy="38.908627"
         transform="matrix(1,0,0,1.2432,0,-10.272)"
         d="m 45.052803,38.908627 c 0,4.128399 -9.045214,7.475128 -20.203051,7.475128 -11.157836,0 -20.2030502,-3.346729 -20.2030502,-7.475128 0,-4.1284 9.0452142,-7.475129 20.2030502,-7.475129 11.157837,0 20.203051,3.346729 20.203051,7.475129 z"
         sodipodi:type="arc"
         sodipodi:ry="7.4751287"
         sodipodi:rx="20.203051"
         id="path4112"
         style="fill:url(#radialGradient4120)" />
      <path
         d="m 43.96,23.485 c 0,10.71 -8.682,19.392 -19.39,19.392 -10.71,0 -19.391,-8.682 -19.391,-19.392 -3e-4,-10.709 8.681,-19.39 19.391,-19.39 10.708,2e-4 19.39,8.681 19.39,19.39 z"
         id="path3214"
         inkscape:connector-curvature="0"
         style="fill:url(#radialGradient3968);stroke:#39396c" />
      <g
         transform="matrix(0.98237,0,0,0.98237,0.12108,0.23291)"
         id="g4136"
         style="fill:#204a87;fill-opacity:0.71344999">
        <g
           id="g4138">
          <g
             id="g4142"
             style="fill:#204a87">
            <path
               d="m 44.071,20.714 v 0 l -0.545,0.618 c -0.334,-0.394 -0.709,-0.725 -1.089,-1.071 l -0.836,0.123 -0.764,-0.863 v 1.068 l 0.654,0.495 0.436,0.494 0.582,-0.658 c 0.146,0.274 0.291,0.548 0.436,0.823 v 0.822 l -0.655,0.74 -1.199,0.823 -0.908,0.907 -0.582,-0.661 0.291,-0.74 -0.582,-0.658 -0.981,-2.098 -0.836,-0.945 -0.219,0.246 0.328,1.194 0.618,0.699 c 0.352,1.017 0.701,1.99 1.164,2.963 0.718,0 1.394,-0.077 2.107,-0.166 v 0.576 l -0.872,2.139 -0.8,0.904 -0.654,1.401 v 2.303 l 0.219,0.906 -0.364,0.41 -0.8,0.494 -0.836,0.699 0.691,0.782 -0.945,0.824 0.182,0.533 -1.418,1.606 h -0.945 l -0.8,0.494 H 33.64 v -0.659 l -0.217,-1.318 c -0.281,-0.826 -0.574,-1.647 -0.872,-2.467 0,-0.605 0.036,-1.205 0.072,-1.81 l 0.364,-0.823 -0.509,-0.988 0.037,-1.357 -0.692,-0.782 0.346,-1.13 -0.563,-0.639 h -0.982 l -0.327,-0.37 -0.981,0.618 -0.4,-0.454 -0.909,0.782 c -0.617,-0.7 -1.235,-1.399 -1.854,-2.098 l -0.726,-1.729 0.654,-0.986 -0.363,-0.411 0.799,-1.894 c 0.656,-0.816 1.341,-1.599 2.035,-2.385 l 1.236,-0.329 1.381,-0.165 0.945,0.248 1.345,1.356 0.473,-0.534 0.653,-0.082 1.236,0.411 h 0.946 l 0.654,-0.576 0.291,-0.411 -0.655,-0.412 -1.091,-0.082 C 35.663,17.045 35.382,16.603 35.022,16.23 l -0.364,0.164 -0.145,1.07 -0.655,-0.74 -0.144,-0.824 -0.727,-0.574 h -0.292 l 0.728,0.822 -0.291,0.74 -0.581,0.164 0.363,-0.74 -0.655,-0.328 -0.581,-0.658 -1.091,0.246 -0.145,0.328 -0.654,0.412 -0.363,0.906 -0.909,0.452 -0.4,-0.452 H 27.68 v -1.482 l 0.946,-0.494 h 0.726 l -0.146,-0.575 -0.58,-0.576 0.98,-0.206 0.545,-0.617 0.436,-0.741 h 0.801 l -0.219,-0.575 0.509,-0.329 v 0.658 l 1.09,0.246 1.09,-0.904 0.073,-0.412 0.945,-0.658 c -0.342,0.043 -0.684,0.074 -1.018,0.165 V 9.9766 l 0.363,-0.8228 h -0.363 l -0.798,0.7402 -0.219,0.412 0.219,0.576 -0.365,0.987 -0.581,-0.329 -0.508,-0.576 -0.8,0.576 -0.291,-1.316 1.381,-0.9052 V 8.8247 l 0.872,-0.5757 1.381,-0.3296 0.946,0.3296 1.744,0.3291 -0.436,0.4932 h -0.945 l 0.945,0.9877 0.727,-0.8227 0.221,-0.3618 c 0,0 2.787,2.4975 4.379,5.2305 1.593,2.733 2.341,5.955 2.341,6.609 z"
               id="path4144"
               inkscape:connector-curvature="0"
               style="fill:#204a87" />
          </g>
        </g>
        <g
           id="g4146">
          <g
             id="g4150"
             style="fill:#204a87">
            <path
               d="M 26.07,9.2363 25.997,9.7295 26.507,10.059 27.378,9.4829 26.942,8.9892 26.36,9.3188 26.07,9.2363"
               id="path4152"
               inkscape:connector-curvature="0"
               style="fill:#204a87" />
          </g>
        </g>
        <g
           id="g4154">
          <g
             id="g4158"
             style="fill:#204a87">
            <path
               d="M 26.87,5.8633 24.98,5.1226 22.8,5.3692 20.109,6.1094 19.601,6.6035 21.272,7.7549 V 8.4131 L 20.618,9.0713 21.491,10.8 22.071,10.47 22.8,9.3188 C 23.923,8.9716 24.93,8.5781 25.997,8.0844 L 26.87,5.8632"
               id="path4160"
               inkscape:connector-curvature="0"
               style="fill:#204a87" />
          </g>
        </g>
        <g
           id="g4162">
          <g
             id="g4166"
             style="fill:#204a87">
            <path
               d="m 28.833,12.775 -0.291,-0.741 -0.51,0.165 0.147,0.904 0.654,-0.328"
               id="path4168"
               inkscape:connector-curvature="0"
               style="fill:#204a87" />
          </g>
        </g>
        <g
           id="g4170">
          <g
             id="g4174"
             style="fill:#204a87">
            <path
               d="m 29.123,12.609 -0.145,0.988 0.799,-0.165 0.581,-0.575 -0.508,-0.494 c -0.171,-0.455 -0.368,-0.88 -0.582,-1.317 h -0.435 v 0.494 l 0.29,0.329 v 0.74"
               id="path4176"
               inkscape:connector-curvature="0"
               style="fill:#204a87" />
          </g>
        </g>
        <g
           id="g4178">
          <g
             id="g4182"
             style="fill:#204a87">
            <path
               d="m 18.365,28.242 -0.582,-1.152 -1.09,-0.247 -0.582,-1.562 -1.453,0.164 -1.236,-0.904 -1.309,1.151 v 0.182 C 11.717,25.759 11.23,25.744 10.878,25.527 L 10.587,24.705 V 23.799 L 9.7148,23.881 C 9.7876,23.305 9.8598,22.73 9.9331,22.154 H 9.4238 L 8.9155,22.812 8.4062,23.058 7.6791,22.648 7.6063,21.743 7.7518,20.755 8.8426,19.933 h 0.8721 l 0.145,-0.494 1.0903,0.246 0.8,0.988 0.145,-1.646 1.382,-1.152 0.508,-1.234 1.018,-0.411 0.581,-0.822 1.309,-0.248 0.654,-0.987 h -1.963 l 1.236,-0.576 h 0.872 l 1.236,-0.412 0.146,-0.492 -0.437,-0.412 -0.509,-0.165 0.146,-0.494 -0.363,-0.74 -0.873,0.328 0.146,-0.657 -1.018,-0.5765 -0.799,1.3975 0.072,0.494 -0.799,0.331 -0.51,1.069 -0.218,-0.987 -1.381,-0.577 -0.218,-0.74 1.817,-1.0701 0.8,-0.7402 0.073,-0.9048 -0.436,-0.2471 -0.582,-0.0825 -0.363,0.9053 c 0,0 -0.608,0.1191 -0.764,0.1577 -1.996,1.8397 -6.0294,5.8097 -6.9664,13.306 0.0371,0.174 0.6792,1.182 0.6792,1.182 l 1.5264,0.904 1.5264,0.412 0.6544,0.824 1.018,0.74 0.581,-0.082 0.436,0.196 v 0.133 l -0.581,1.563 -0.437,0.658 0.146,0.33 -0.363,1.233 1.308,2.386 1.308,1.153 0.582,0.822 -0.073,1.728 0.437,0.987 -0.437,1.892 c 0,0 -0.034,-0.011 0.022,0.178 0.056,0.19 2.329,1.451 2.473,1.344 0.144,-0.109 0.267,-0.205 0.267,-0.205 l -0.145,-0.41 0.581,-0.577 0.219,-0.576 0.945,-0.33 0.727,-1.81 -0.218,-0.493 0.508,-0.74 1.09,-0.248 0.582,-1.316 -0.145,-1.645 0.872,-1.234 0.145,-1.235 c -1.193,-0.591 -2.376,-1.201 -3.561,-1.81"
               id="path4184"
               inkscape:connector-curvature="0"
               style="fill:#204a87" />
          </g>
        </g>
        <g
           id="g4186">
          <g
             id="g4190"
             style="fill:#204a87">
            <path
               d="m 16.766,9.5649 0.726,0.4941 h 0.582 V 9.4829 L 17.348,9.1538 16.766,9.5649"
               id="path4192"
               inkscape:connector-curvature="0"
               style="fill:#204a87" />
          </g>
        </g>
        <g
           id="g4194">
          <g
             id="g4198"
             style="fill:#204a87">
            <path
               d="M 14.876,8.9072 14.512,9.812 h 0.727 L 15.603,8.9892 C 15.917,8.7675 16.229,8.5444 16.548,8.331 l 0.727,0.2471 c 0.484,0.3291 0.969,0.6582 1.454,0.9868 L 19.456,8.9072 18.656,8.5781 18.292,7.8374 16.911,7.6728 16.838,7.2612 16.184,7.4262 15.894,8.002 15.53,7.2613 l -0.145,0.3291 0.073,0.8228 -0.582,0.494"
               id="path4200"
               inkscape:connector-curvature="0"
               style="fill:#204a87" />
          </g>
        </g>
        <g
           id="g4202">
          <g
             id="g4204"
             style="opacity:0.75" />
          <g
             id="g4208" />
        </g>
        <g
           id="g4212">
          <g
             id="g4214"
             style="opacity:0.75" />
          <g
             id="g4218" />
        </g>
        <g
           id="g4222">
          <g
             id="g4226"
             style="fill:#204a87">
            <path
               d="M 17.492,6.8496 17.856,6.521 18.583,6.3564 C 19.081,6.1142 19.581,5.9511 20.11,5.7802 l -0.29,-0.4937 -0.939,0.1348 -0.443,0.4419 -0.731,0.106 -0.65,0.3052 -0.316,0.1528 -0.193,0.2583 0.944,0.1641"
               id="path4228"
               inkscape:connector-curvature="0"
               style="fill:#204a87" />
          </g>
        </g>
        <g
           id="g4230">
          <g
             id="g4234"
             style="fill:#204a87">
            <path
               d="m 18.728,14.666 0.437,-0.658 -0.655,-0.493 0.218,1.151"
               id="path4236"
               inkscape:connector-curvature="0"
               style="fill:#204a87" />
          </g>
        </g>
      </g>
      <path
         style="opacity:0.39560002;fill:none;stroke:url(#radialGradient4132-8)"
         d="m 42.975,23.486 c 0,10.165 -8.241,18.406 -18.406,18.406 C 14.404,41.892 6.163,33.651 6.163,23.486 6.1634,13.32 14.404,5.08 24.569,5.08 34.734,5.0799 42.975,13.32 42.975,23.486 z"
         id="path4122"
         inkscape:connector-curvature="0" />
      <path
         sodipodi:cx="-18.561554"
         sodipodi:cy="21.041553"
         d="m -2.8284283,21.041553 c 0,5.223263 -7.0439603,9.457553 -15.7331257,9.457553 -8.689165,0 -15.733126,-4.23429 -15.733126,-9.457553 0,-5.223262 7.043961,-9.457552 15.733126,-9.457552 8.6891654,0 15.7331257,4.23429 15.7331257,9.457552 z"
         sodipodi:type="arc"
         transform="matrix(1.131,0.6131,-0.47656,0.87914,54.091,16.044)"
         style="color:#000000;fill:none;stroke:url(#linearGradient6007);stroke-width:0.88164002;stroke-linecap:round;stroke-linejoin:round"
         sodipodi:ry="9.4575529"
         sodipodi:rx="15.733126"
         id="path5991" />
      <path
         sodipodi:cx="-18.561554"
         sodipodi:cy="21.041553"
         d="m -2.8284283,21.041553 c 0,5.223263 -7.0439603,9.457553 -15.7331257,9.457553 -8.689165,0 -15.733126,-4.23429 -15.733126,-9.457553 0,-5.223262 7.043961,-9.457552 15.733126,-9.457552 8.6891654,0 15.7331257,4.23429 15.7331257,9.457552 z"
         sodipodi:type="arc"
         transform="matrix(0.93933,-0.87909,0.68331,0.73013,32.314,-4.4516)"
         style="color:#000000;fill:none;stroke:url(#linearGradient6011);stroke-width:0.88164002;stroke-linecap:round;stroke-linejoin:round"
         sodipodi:ry="9.4575529"
         sodipodi:rx="15.733126"
         id="path6009" />
      <g
         transform="matrix(-1.0458,0.76725,0.76725,1.0458,35.617,-22.144)"
         id="g4933"
         style="fill-rule:evenodd">
        <path
           sodipodi:type="arc"
           sodipodi:cx="12.071323"
           sodipodi:cy="12.493138"
           transform="translate(14.95,22.93)"
           d="m 18.788838,12.493138 c 0,3.709981 -3.007534,6.717515 -6.717515,6.717515 -3.7099804,0 -6.7175141,-3.007534 -6.7175141,-6.717515 0,-3.7099805 3.0075337,-6.7175142 6.7175141,-6.7175142 3.709981,0 6.717515,3.0075337 6.717515,6.7175142 z"
           style="color:#000000;fill:url(#radialGradient5312)"
           sodipodi:ry="6.7175145"
           sodipodi:rx="6.7175145"
           id="path4935" />
        <path
           sodipodi:cx="12.071323"
           sodipodi:cy="12.493138"
           transform="matrix(0.30827,0,0,0.30827,23.3,31.572)"
           d="m 18.788838,12.493138 c 0,3.709981 -3.007534,6.717515 -6.717515,6.717515 -3.7099804,0 -6.7175141,-3.007534 -6.7175141,-6.717515 0,-3.7099805 3.0075337,-6.7175142 6.7175141,-6.7175142 3.709981,0 6.717515,3.0075337 6.717515,6.7175142 z"
           sodipodi:type="arc"
           style="color:#000000;fill:#ffffff"
           sodipodi:ry="6.7175145"
           sodipodi:rx="6.7175145"
           id="path4937" />
      </g>
      <path
         sodipodi:cx="-18.561554"
         sodipodi:cy="21.041553"
         d="m -2.8284283,21.041553 c 0,5.223263 -7.0439603,9.457553 -15.7331257,9.457553 -8.689165,0 -15.733126,-4.23429 -15.733126,-9.457553 0,-5.223262 7.043961,-9.457552 15.733126,-9.457552 8.6891654,0 15.7331257,4.23429 15.7331257,9.457552 z"
         sodipodi:type="arc"
         transform="matrix(-1.2803,-0.12616,0.098062,-0.99518,-2.4051,40.524)"
         style="color:#000000;fill:none;stroke:url(#linearGradient6015);stroke-width:0.88164002;stroke-linecap:round;stroke-linejoin:round"
         sodipodi:ry="9.4575529"
         sodipodi:rx="15.733126"
         id="path6013" />
      <path
         sodipodi:cx="-18.561554"
         sodipodi:cy="21.041553"
         d="m -2.8284283,21.041553 c 0,5.223263 -7.0439603,9.457553 -15.7331257,9.457553 -8.689165,0 -15.733126,-4.23429 -15.733126,-9.457553 0,-5.223262 7.043961,-9.457552 15.733126,-9.457552 8.6891654,0 15.7331257,4.23429 15.7331257,9.457552 z"
         sodipodi:type="arc"
         transform="matrix(0.91787,-0.85898,0.6677,0.71343,27.633,-6.9091)"
         style="color:#000000;fill:none;stroke:url(#linearGradient6019);stroke-width:0.90226001;stroke-linecap:round;stroke-linejoin:round"
         sodipodi:ry="9.4575529"
         sodipodi:rx="15.733126"
         id="path6017" />
      <g
         transform="matrix(-0.80628,0.59154,0.59154,0.80628,12.386,-18.029)"
         id="g5075"
         style="fill-rule:evenodd">
        <path
           sodipodi:type="arc"
           sodipodi:cx="12.071323"
           sodipodi:cy="12.493138"
           transform="translate(14.95,22.93)"
           d="m 18.788838,12.493138 c 0,3.709981 -3.007534,6.717515 -6.717515,6.717515 -3.7099804,0 -6.7175141,-3.007534 -6.7175141,-6.717515 0,-3.7099805 3.0075337,-6.7175142 6.7175141,-6.7175142 3.709981,0 6.717515,3.0075337 6.717515,6.7175142 z"
           style="color:#000000;fill:url(#radialGradient5314)"
           sodipodi:ry="6.7175145"
           sodipodi:rx="6.7175145"
           id="path5077" />
        <path
           sodipodi:cx="12.071323"
           sodipodi:cy="12.493138"
           transform="matrix(0.30827,0,0,0.30827,23.3,31.572)"
           d="m 18.788838,12.493138 c 0,3.709981 -3.007534,6.717515 -6.717515,6.717515 -3.7099804,0 -6.7175141,-3.007534 -6.7175141,-6.717515 0,-3.7099805 3.0075337,-6.7175142 6.7175141,-6.7175142 3.709981,0 6.717515,3.0075337 6.717515,6.7175142 z"
           sodipodi:type="arc"
           style="color:#000000;fill:#ffffff"
           sodipodi:ry="6.7175145"
           sodipodi:rx="6.7175145"
           id="path5079" />
      </g>
      <g
         transform="matrix(-0.80628,0.59154,0.59154,0.80628,13.499,-31.5)"
         id="g4945"
         style="fill-rule:evenodd">
        <path
           sodipodi:cx="12.071323"
           sodipodi:cy="12.493138"
           transform="translate(14.95,22.93)"
           d="m 18.788838,12.493138 c 0,3.709981 -3.007534,6.717515 -6.717515,6.717515 -3.7099804,0 -6.7175141,-3.007534 -6.7175141,-6.717515 0,-3.7099805 3.0075337,-6.7175142 6.7175141,-6.7175142 3.709981,0 6.717515,3.0075337 6.717515,6.7175142 z"
           sodipodi:type="arc"
           style="color:#000000;fill:url(#radialGradient5316)"
           sodipodi:ry="6.7175145"
           sodipodi:rx="6.7175145"
           id="path4947" />
        <path
           sodipodi:type="arc"
           sodipodi:cx="12.071323"
           sodipodi:cy="12.493138"
           transform="matrix(0.30827,0,0,0.30827,23.3,31.572)"
           d="m 18.788838,12.493138 c 0,3.709981 -3.007534,6.717515 -6.717515,6.717515 -3.7099804,0 -6.7175141,-3.007534 -6.7175141,-6.717515 0,-3.7099805 3.0075337,-6.7175142 6.7175141,-6.7175142 3.709981,0 6.717515,3.0075337 6.717515,6.7175142 z"
           style="color:#000000;fill:#ffffff"
           sodipodi:ry="6.7175145"
           sodipodi:rx="6.7175145"
           id="path4949" />
      </g>
      <g
         transform="matrix(-0.87023,0.63857,0.63846,0.87038,25.205,-35.313)"
         id="g4939"
         style="fill-rule:evenodd">
        <path
           sodipodi:cx="12.071323"
           sodipodi:cy="12.493138"
           transform="translate(14.95,22.93)"
           d="m 18.788838,12.493138 c 0,3.709981 -3.007534,6.717515 -6.717515,6.717515 -3.7099804,0 -6.7175141,-3.007534 -6.7175141,-6.717515 0,-3.7099805 3.0075337,-6.7175142 6.7175141,-6.7175142 3.709981,0 6.717515,3.0075337 6.717515,6.7175142 z"
           sodipodi:type="arc"
           style="color:#000000;fill:url(#radialGradient5983)"
           sodipodi:ry="6.7175145"
           sodipodi:rx="6.7175145"
           id="path4941" />
        <path
           sodipodi:type="arc"
           sodipodi:cx="12.071323"
           sodipodi:cy="12.493138"
           transform="matrix(0.30827,0,0,0.30827,23.3,31.572)"
           d="m 18.788838,12.493138 c 0,3.709981 -3.007534,6.717515 -6.717515,6.717515 -3.7099804,0 -6.7175141,-3.007534 -6.7175141,-6.717515 0,-3.7099805 3.0075337,-6.7175142 6.7175141,-6.7175142 3.709981,0 6.717515,3.0075337 6.717515,6.7175142 z"
           style="color:#000000;fill:#ffffff"
           sodipodi:ry="6.7175145"
           sodipodi:rx="6.7175145"
           id="path4943" />
      </g>
    </g>
    <g
       id="g4314"
       transform="matrix(3.886957,0,0,3.886957,-583.0183,-1462.0372)">
      <path
         d="m 203.25133,494.58589 c 0.55697,0 0.94576,-0.13651 1.16637,-0.40954 0.2206,-0.2752 0.3309,-0.77102 0.3309,-1.48744 0,-0.72297 -0.1103,-1.22097 -0.3309,-1.494 -0.21843,-0.2752 -0.60721,-0.41281 -1.16637,-0.41281 l -0.31452,0 0,3.80379 0.31452,0 m 0.0131,-4.34766 c 0.74699,1e-5 1.29741,0.19877 1.65126,0.59629 0.35383,0.39753 0.53075,1.01566 0.53076,1.85439 -1e-5,0.83437 -0.17693,1.45031 -0.53076,1.84784 -0.35385,0.39534 -0.90427,0.59301 -1.65126,0.59301 l -0.99272,0 0,-4.89153 0.99272,0"
         style="font-size:6.70988035px;font-style:normal;font-variant:normal;font-weight:normal;font-stretch:normal;line-height:125%;letter-spacing:0px;word-spacing:0px;fill:#000000;fill-opacity:1;stroke:none;font-family:Monospace;-inkscape-font-specification:Monospace"
         id="path3304"
         inkscape:connector-curvature="0" />
      <path
         d="m 206.50471,490.23823 2.90281,0 0,0.55697 -2.241,0 0,1.44813 2.14271,0 0,0.55698 -2.14271,0 0,1.77248 2.30325,0 0,0.55697 -2.96506,0 0,-4.89153"
         style="font-size:6.70988035px;font-style:normal;font-variant:normal;font-weight:normal;font-stretch:normal;line-height:125%;letter-spacing:0px;word-spacing:0px;fill:#000000;fill-opacity:1;stroke:none;font-family:Monospace;-inkscape-font-specification:Monospace"
         id="path3306"
         inkscape:connector-curvature="0" />
      <path
         d="m 209.41966,495.77123 0,0.68553 c -0.20511,-0.13153 -0.41132,-0.23073 -0.61865,-0.29762 -0.20511,-0.0669 -0.41244,-0.10032 -0.622,-0.10032 -0.3188,0 -0.57072,0.0747 -0.75575,0.22405 -0.18504,0.14714 -0.27756,0.34667 -0.27756,0.59859 0,0.22071 0.0602,0.38902 0.18058,0.50495 0.12261,0.11593 0.35001,0.21291 0.68219,0.29093 l 0.35447,0.0803 c 0.46816,0.10924 0.80925,0.2809 1.02328,0.51498 0.21401,0.23409 0.32102,0.55289 0.32103,0.9564 -10e-6,0.47486 -0.14715,0.83713 -0.44142,1.08682 -0.29428,0.24969 -0.72232,0.37453 -1.28412,0.37453 -0.23408,0 -0.46928,-0.0256 -0.70559,-0.0769 -0.23631,-0.0491 -0.47374,-0.12373 -0.71228,-0.22405 l 0,-0.71898 c 0.25637,0.16275 0.49826,0.28202 0.72566,0.35782 0.22962,0.0758 0.46036,0.1137 0.69221,0.1137 0.3411,0 0.60639,-0.0758 0.79589,-0.2274 0.18949,-0.15382 0.28424,-0.36784 0.28424,-0.64206 0,-0.24968 -0.0658,-0.4403 -0.1973,-0.57183 -0.1293,-0.13153 -0.35558,-0.23297 -0.67884,-0.30431 l -0.36116,-0.0836 c -0.46371,-0.10478 -0.80034,-0.26306 -1.0099,-0.47486 -0.20956,-0.21178 -0.31434,-0.49603 -0.31434,-0.85273 0,-0.44587 0.14937,-0.80257 0.4481,-1.0701 0.30097,-0.26974 0.70002,-0.40462 1.19717,-0.40463 0.19173,10e-6 0.39348,0.0223 0.60528,0.0669 0.21178,0.0424 0.43472,0.10701 0.66881,0.19395"
         style="font-size:6.84861803px;font-style:normal;font-variant:normal;font-weight:normal;font-stretch:normal;line-height:125%;letter-spacing:0px;word-spacing:0px;fill:#000000;fill-opacity:1;stroke:none;font-family:Monospace;-inkscape-font-specification:Monospace"
         id="path3299"
         inkscape:connector-curvature="0" />
      <path
         d="m 210.8275,495.60068 2.77222,0 0,0.56849 -1.04669,0 0,3.85569 1.04669,0 0,0.56849 -2.77222,0 0,-0.56849 1.04669,0 0,-3.85569 -1.04669,0 0,-0.56849"
         style="font-size:6.84861803px;font-style:normal;font-variant:normal;font-weight:normal;font-stretch:normal;line-height:125%;letter-spacing:0px;word-spacing:0px;fill:#000000;fill-opacity:1;stroke:none;font-family:Monospace;-inkscape-font-specification:Monospace"
         id="path3301"
         inkscape:connector-curvature="0" />
      <path
         d="m 210.15566,500.94731 0.88461,0 0.84528,2.48999 0.85185,-2.48999 0.88787,0 0,4.89153 -0.61266,0 0,-4.32145 -0.8715,2.57845 -0.50128,0 -0.87477,-2.57845 0,4.32145 -0.6094,0 0,-4.89153"
         style="font-size:6.70988035px;font-style:normal;font-variant:normal;font-weight:normal;font-stretch:normal;line-height:125%;letter-spacing:0px;word-spacing:0px;fill:#000000;fill-opacity:1;stroke:none;font-family:Monospace;-inkscape-font-specification:Monospace"
         id="path3294"
         inkscape:connector-curvature="0" />
      <path
         d="m 215.92852,501.53049 -0.69785,2.5031 1.3957,0 -0.69785,-2.5031 m -0.39971,-0.58318 0.8027,0 1.49727,4.89153 -0.68475,0 -0.36039,-1.27449 -1.71351,0 -0.35384,1.27449 -0.68475,0 1.49727,-4.89153"
         style="font-size:6.70988035px;font-style:normal;font-variant:normal;font-weight:normal;font-stretch:normal;line-height:125%;letter-spacing:0px;word-spacing:0px;fill:#000000;fill-opacity:1;stroke:none;font-family:Monospace;-inkscape-font-specification:Monospace"
         id="path3296"
         inkscape:connector-curvature="0" />
    </g>
  </g>
</svg>
